<?xml version="1.0" encoding="UTF-8"?>
<svg xmlns="http://www.w3.org/2000/svg" xmlns:xlink="http://www.w3.org/1999/xlink" width="40pt" height="40pt" viewBox="0 0 40 40" version="1.1">
<g id="surface1">
<path style=" stroke:none;fill-rule:evenodd;fill:rgb(5.098039%,68.627451%,32.54902%);fill-opacity:1;" d="M 8.28125 15.394531 C 7.863281 15.445312 7.902344 15.21875 7.886719 17.617188 L 7.878906 19.71875 L 7.988281 19.71875 C 8.109375 19.71875 8.1875 19.652344 8.921875 18.945312 C 10.023438 17.882812 11.136719 16.8125 11.476562 16.488281 L 11.855469 16.128906 L 11.789062 16.027344 C 11.71875 15.917969 11.28125 15.6875 10.960938 15.582031 C 10.859375 15.550781 10.699219 15.496094 10.601562 15.457031 C 10.40625 15.386719 8.738281 15.339844 8.28125 15.394531 M 12.574219 16.757812 C 12.503906 16.792969 12.277344 16.984375 12.074219 17.183594 C 11.867188 17.382812 11.53125 17.707031 11.320312 17.902344 C 10.539062 18.640625 10.398438 18.785156 10.398438 18.863281 C 10.398438 18.917969 10.703125 19.238281 11.269531 19.78125 C 11.746094 20.242188 12.210938 20.691406 12.300781 20.78125 C 13.246094 21.695312 13.445312 21.878906 13.496094 21.878906 C 13.585938 21.878906 13.75 21.574219 13.84375 21.234375 C 13.886719 21.074219 13.945312 20.867188 13.96875 20.78125 C 14.210938 19.90625 13.894531 18.277344 13.316406 17.441406 C 12.875 16.800781 12.738281 16.675781 12.574219 16.757812 M 5.570312 16.929688 C 5.429688 17.011719 5.097656 17.433594 4.984375 17.683594 C 4.949219 17.757812 4.902344 17.847656 4.882812 17.878906 C 4.816406 17.980469 4.601562 18.511719 4.601562 18.570312 C 4.601562 18.601562 4.5625 18.746094 4.515625 18.886719 C 4.355469 19.375 4.371094 20.570312 4.542969 20.980469 C 4.574219 21.054688 4.601562 21.15625 4.601562 21.203125 C 4.601562 21.28125 4.722656 21.609375 4.867188 21.898438 C 5.082031 22.347656 5.429688 22.804688 5.597656 22.867188 L 5.71875 22.914062 L 5.71875 19.898438 C 5.71875 18.238281 5.707031 16.878906 5.691406 16.882812 C 5.671875 16.882812 5.621094 16.90625 5.570312 16.929688 M 16.789062 16.980469 L 16.679688 17.042969 L 16.679688 22.757812 L 16.808594 22.824219 C 16.953125 22.898438 17.398438 22.882812 17.5 22.800781 C 17.550781 22.757812 17.558594 22.566406 17.558594 21.566406 C 17.5625 19.890625 17.566406 19.875 17.957031 20.34375 C 18.09375 20.503906 18.390625 20.84375 18.613281 21.089844 C 19.339844 21.898438 19.441406 22.015625 19.773438 22.40625 C 20.164062 22.867188 20.222656 22.894531 20.796875 22.875 C 21.113281 22.863281 21.21875 22.84375 21.253906 22.796875 C 21.277344 22.761719 21.328125 22.722656 21.359375 22.710938 C 21.410156 22.691406 21.410156 22.6875 21.359375 22.683594 C 21.324219 22.679688 21.21875 22.59375 21.121094 22.488281 C 21.027344 22.386719 20.746094 22.085938 20.503906 21.820312 C 20.257812 21.558594 20.015625 21.296875 19.960938 21.234375 C 19.90625 21.175781 19.6875 20.941406 19.472656 20.710938 C 18.980469 20.179688 18.800781 19.964844 18.800781 19.90625 C 18.804688 19.796875 19.117188 19.429688 19.898438 18.617188 C 20.058594 18.453125 20.902344 17.546875 21.113281 17.316406 C 21.398438 17 21.316406 16.921875 20.710938 16.921875 C 20.136719 16.921875 20.269531 16.816406 18.945312 18.328125 C 18.882812 18.402344 18.703125 18.605469 18.542969 18.78125 C 18.382812 18.957031 18.128906 19.238281 17.976562 19.410156 C 17.574219 19.871094 17.582031 19.894531 17.570312 18.320312 C 17.558594 17.257812 17.546875 17.039062 17.496094 17 C 17.402344 16.917969 16.917969 16.90625 16.789062 16.980469 M 21.605469 17.011719 L 21.519531 17.105469 L 21.519531 22.71875 L 21.609375 22.796875 C 21.734375 22.917969 22.296875 22.917969 22.359375 22.800781 C 22.382812 22.753906 22.402344 22.261719 22.402344 21.492188 C 22.40625 20.609375 22.421875 20.214844 22.457031 20.101562 L 22.507812 19.941406 L 22.554688 20.050781 C 22.597656 20.15625 24.75 22.765625 24.839844 22.820312 C 24.976562 22.90625 25.707031 22.890625 25.796875 22.804688 L 25.882812 22.714844 L 25.765625 22.566406 C 25.699219 22.488281 25.496094 22.25 25.3125 22.039062 C 24.988281 21.664062 24.878906 21.539062 24.417969 20.988281 C 24.152344 20.671875 24.15625 20.660156 24.5625 20.441406 C 25.878906 19.738281 25.757812 17.773438 24.355469 17.121094 C 23.882812 16.902344 21.789062 16.820312 21.605469 17.011719 M 26.441406 17 C 26.363281 17.078125 26.359375 17.132812 26.359375 19.917969 L 26.359375 22.753906 L 26.449219 22.816406 C 26.5625 22.894531 27.097656 22.90625 27.148438 22.828125 C 27.164062 22.800781 27.1875 22.183594 27.199219 21.453125 C 27.214844 20.507812 27.234375 20.109375 27.265625 20.078125 C 27.316406 20.027344 27.457031 20.164062 28.019531 20.820312 C 28.171875 20.996094 28.460938 21.320312 28.65625 21.539062 C 28.855469 21.761719 29.136719 22.078125 29.28125 22.242188 C 29.84375 22.890625 29.933594 22.929688 30.613281 22.867188 C 31.039062 22.828125 31.027344 22.746094 30.515625 22.242188 C 30.363281 22.09375 28.398438 19.921875 28.398438 19.90625 C 28.398438 19.878906 28.636719 19.589844 28.832031 19.375 C 28.9375 19.265625 29.191406 18.988281 29.398438 18.757812 C 29.609375 18.53125 29.816406 18.304688 29.863281 18.261719 C 30.054688 18.070312 30.917969 17.109375 30.917969 17.085938 C 30.917969 16.976562 30.824219 16.941406 30.472656 16.925781 C 29.875 16.902344 29.832031 16.921875 29.332031 17.492188 C 28.886719 18 28.769531 18.132812 28.398438 18.539062 C 28.277344 18.671875 27.984375 19 27.746094 19.273438 C 27.425781 19.636719 27.296875 19.753906 27.265625 19.722656 C 27.234375 19.691406 27.214844 19.25 27.199219 18.347656 C 27.1875 17.617188 27.164062 16.996094 27.148438 16.96875 C 27.089844 16.878906 26.535156 16.902344 26.441406 17 M 31.402344 16.960938 C 31.238281 17.03125 31.242188 16.996094 31.242188 19.925781 C 31.238281 23.1875 31.1875 22.859375 31.699219 22.859375 C 32.167969 22.859375 32.152344 22.890625 32.167969 22.0625 C 32.183594 21.15625 32.082031 21.238281 33.191406 21.238281 C 34.226562 21.238281 34.21875 21.238281 34.480469 21.609375 C 34.558594 21.71875 34.699219 21.917969 34.800781 22.054688 C 34.898438 22.191406 35.050781 22.40625 35.140625 22.535156 C 35.367188 22.867188 35.683594 22.960938 36.21875 22.84375 C 36.402344 22.804688 36.347656 22.546875 36.117188 22.359375 C 36.101562 22.347656 36.0625 22.285156 36.023438 22.21875 C 35.988281 22.152344 35.90625 22.035156 35.847656 21.953125 C 35.675781 21.722656 35.089844 20.882812 35.019531 20.765625 C 34.996094 20.730469 34.90625 20.601562 34.820312 20.480469 C 34.730469 20.359375 34.628906 20.214844 34.589844 20.160156 C 34.554688 20.105469 34.46875 19.988281 34.402344 19.898438 C 34.335938 19.8125 34.253906 19.6875 34.214844 19.621094 C 34.179688 19.558594 34.125 19.480469 34.097656 19.453125 C 34.070312 19.421875 33.925781 19.222656 33.78125 19.007812 C 33.636719 18.796875 33.429688 18.492188 33.320312 18.339844 C 33.207031 18.1875 33.035156 17.933594 32.929688 17.78125 C 32.824219 17.625 32.707031 17.464844 32.671875 17.421875 C 32.632812 17.378906 32.601562 17.332031 32.601562 17.316406 C 32.601562 17.300781 32.53125 17.210938 32.445312 17.117188 L 32.292969 16.949219 L 31.898438 16.933594 C 31.671875 16.925781 31.457031 16.9375 31.402344 16.960938 M 24 17.929688 C 24.683594 18.335938 24.773438 19.121094 24.195312 19.617188 C 23.960938 19.8125 23.835938 19.84375 23.109375 19.867188 L 22.480469 19.890625 L 22.441406 19.78125 C 22.378906 19.617188 22.386719 17.910156 22.449219 17.84375 C 22.558594 17.734375 23.789062 17.800781 24 17.929688 M 32.417969 18.617188 C 32.488281 18.734375 32.632812 18.945312 33.1875 19.761719 C 33.226562 19.816406 33.324219 19.964844 33.40625 20.089844 L 33.558594 20.324219 L 33.453125 20.363281 C 33.394531 20.382812 33.105469 20.398438 32.804688 20.390625 C 32.109375 20.375 32.15625 20.449219 32.167969 19.375 C 32.183594 18.410156 32.21875 18.292969 32.417969 18.617188 M 7.949219 20.066406 C 7.882812 20.085938 7.878906 20.21875 7.878906 22.132812 C 7.882812 24.351562 7.878906 24.347656 8.101562 24.410156 C 8.425781 24.5 10.566406 24.429688 10.695312 24.324219 C 10.71875 24.304688 10.828125 24.261719 10.941406 24.226562 C 11.050781 24.195312 11.210938 24.128906 11.296875 24.082031 C 11.386719 24.039062 11.476562 24 11.5 24 C 11.554688 24 11.839844 23.765625 11.839844 23.722656 C 11.839844 23.6875 11.363281 23.214844 9.878906 21.773438 C 7.902344 19.851562 8.097656 20.027344 7.949219 20.066406 "/>
<path style=" stroke:none;fill-rule:evenodd;fill:rgb(98.431373%,98.823529%,98.431373%);fill-opacity:1;" d="M 0 20 L 0 40 L 40 40 L 40 0 L 0 0 L 0 20 M 10.601562 15.457031 C 10.699219 15.496094 10.859375 15.550781 10.960938 15.582031 C 11.28125 15.6875 11.71875 15.917969 11.789062 16.027344 L 11.855469 16.128906 L 11.476562 16.488281 C 11.136719 16.8125 10.023438 17.882812 8.921875 18.945312 C 8.1875 19.652344 8.109375 19.71875 7.988281 19.71875 L 7.878906 19.71875 L 7.886719 17.617188 C 7.902344 15.21875 7.863281 15.445312 8.28125 15.394531 C 8.738281 15.339844 10.40625 15.386719 10.601562 15.457031 M 13.035156 17.058594 C 13.765625 18.003906 14.019531 18.734375 14.015625 19.878906 C 14.015625 20.292969 13.992188 20.691406 13.96875 20.78125 C 13.945312 20.867188 13.886719 21.074219 13.84375 21.234375 C 13.75 21.574219 13.585938 21.878906 13.496094 21.878906 C 13.445312 21.878906 13.246094 21.695312 12.300781 20.78125 C 12.210938 20.691406 11.746094 20.242188 11.269531 19.78125 C 10.703125 19.238281 10.398438 18.917969 10.398438 18.863281 C 10.398438 18.785156 10.539062 18.640625 11.320312 17.902344 C 11.53125 17.707031 11.867188 17.382812 12.074219 17.183594 C 12.667969 16.605469 12.683594 16.605469 13.035156 17.058594 M 5.71875 19.898438 L 5.71875 22.914062 L 5.597656 22.867188 C 5.429688 22.804688 5.082031 22.347656 4.867188 21.898438 C 4.722656 21.609375 4.601562 21.28125 4.601562 21.203125 C 4.601562 21.15625 4.574219 21.054688 4.542969 20.980469 C 4.371094 20.570312 4.355469 19.375 4.515625 18.886719 C 4.5625 18.746094 4.601562 18.601562 4.601562 18.570312 C 4.601562 18.511719 4.816406 17.980469 4.882812 17.878906 C 4.902344 17.847656 4.949219 17.757812 4.984375 17.683594 C 5.140625 17.339844 5.539062 16.886719 5.691406 16.882812 C 5.707031 16.878906 5.71875 18.238281 5.71875 19.898438 M 17.496094 17 C 17.546875 17.039062 17.558594 17.257812 17.570312 18.320312 C 17.582031 19.894531 17.574219 19.871094 17.976562 19.410156 C 18.128906 19.238281 18.382812 18.957031 18.542969 18.78125 C 18.703125 18.605469 18.882812 18.402344 18.945312 18.328125 C 20.269531 16.816406 20.136719 16.921875 20.710938 16.921875 C 21.316406 16.921875 21.398438 17 21.113281 17.316406 C 20.902344 17.546875 20.058594 18.453125 19.898438 18.617188 C 19.117188 19.429688 18.804688 19.796875 18.800781 19.90625 C 18.800781 19.964844 18.980469 20.179688 19.472656 20.710938 C 19.6875 20.941406 19.90625 21.175781 19.960938 21.234375 C 20.015625 21.296875 20.257812 21.558594 20.503906 21.820312 C 20.746094 22.085938 21.027344 22.386719 21.121094 22.488281 C 21.21875 22.59375 21.324219 22.679688 21.359375 22.683594 C 21.410156 22.6875 21.410156 22.691406 21.359375 22.710938 C 21.328125 22.722656 21.277344 22.761719 21.253906 22.796875 C 21.21875 22.84375 21.113281 22.863281 20.796875 22.875 C 20.222656 22.894531 20.164062 22.867188 19.773438 22.40625 C 19.441406 22.015625 19.339844 21.898438 18.613281 21.089844 C 18.390625 20.84375 18.09375 20.503906 17.957031 20.34375 C 17.566406 19.875 17.5625 19.890625 17.558594 21.566406 C 17.558594 22.566406 17.550781 22.757812 17.5 22.800781 C 17.398438 22.882812 16.953125 22.898438 16.808594 22.824219 L 16.679688 22.757812 L 16.679688 17.042969 L 16.789062 16.980469 C 16.917969 16.90625 17.402344 16.917969 17.496094 17 M 23.660156 16.960938 C 25.566406 17.140625 26.195312 19.570312 24.5625 20.441406 C 24.15625 20.660156 24.152344 20.671875 24.417969 20.988281 C 24.878906 21.539062 24.988281 21.664062 25.3125 22.039062 C 25.496094 22.25 25.699219 22.488281 25.765625 22.566406 L 25.882812 22.714844 L 25.796875 22.804688 C 25.707031 22.890625 24.976562 22.90625 24.839844 22.820312 C 24.75 22.765625 22.597656 20.15625 22.554688 20.050781 L 22.507812 19.941406 L 22.457031 20.101562 C 22.421875 20.214844 22.40625 20.609375 22.402344 21.492188 C 22.402344 22.261719 22.382812 22.753906 22.359375 22.800781 C 22.296875 22.917969 21.734375 22.917969 21.609375 22.796875 L 21.519531 22.71875 L 21.519531 17.105469 L 21.605469 17.011719 C 21.707031 16.90625 22.78125 16.878906 23.660156 16.960938 M 27.148438 16.96875 C 27.164062 16.996094 27.1875 17.617188 27.199219 18.347656 C 27.214844 19.25 27.234375 19.691406 27.265625 19.722656 C 27.296875 19.753906 27.425781 19.636719 27.746094 19.273438 C 27.984375 19 28.277344 18.671875 28.398438 18.539062 C 28.769531 18.132812 28.886719 18 29.332031 17.492188 C 29.832031 16.921875 29.875 16.902344 30.472656 16.925781 C 30.824219 16.941406 30.917969 16.976562 30.917969 17.085938 C 30.917969 17.109375 30.054688 18.070312 29.863281 18.261719 C 29.816406 18.304688 29.609375 18.53125 29.398438 18.757812 C 29.191406 18.988281 28.9375 19.265625 28.832031 19.375 C 28.636719 19.589844 28.398438 19.878906 28.398438 19.90625 C 28.398438 19.921875 30.363281 22.09375 30.515625 22.242188 C 31.027344 22.746094 31.039062 22.828125 30.613281 22.867188 C 29.933594 22.929688 29.84375 22.890625 29.28125 22.242188 C 29.136719 22.078125 28.855469 21.761719 28.65625 21.539062 C 28.460938 21.320312 28.171875 20.996094 28.019531 20.820312 C 27.457031 20.164062 27.316406 20.027344 27.265625 20.078125 C 27.234375 20.109375 27.214844 20.507812 27.199219 21.453125 C 27.1875 22.183594 27.164062 22.800781 27.148438 22.828125 C 27.097656 22.90625 26.5625 22.894531 26.449219 22.816406 L 26.359375 22.753906 L 26.359375 19.917969 C 26.359375 16.609375 26.3125 16.921875 26.816406 16.921875 C 27.011719 16.921875 27.125 16.9375 27.148438 16.96875 M 32.445312 17.117188 C 32.53125 17.210938 32.601562 17.300781 32.601562 17.316406 C 32.601562 17.332031 32.632812 17.378906 32.671875 17.421875 C 32.707031 17.464844 32.824219 17.625 32.929688 17.78125 C 33.035156 17.933594 33.207031 18.1875 33.320312 18.339844 C 33.429688 18.492188 33.636719 18.796875 33.78125 19.007812 C 33.925781 19.222656 34.070312 19.421875 34.097656 19.453125 C 34.125 19.480469 34.179688 19.558594 34.214844 19.621094 C 34.253906 19.6875 34.335938 19.8125 34.402344 19.898438 C 34.46875 19.988281 34.554688 20.105469 34.589844 20.160156 C 34.628906 20.214844 34.730469 20.359375 34.820312 20.480469 C 34.90625 20.601562 34.996094 20.730469 35.019531 20.765625 C 35.089844 20.882812 35.675781 21.722656 35.847656 21.953125 C 35.90625 22.035156 35.988281 22.152344 36.023438 22.21875 C 36.0625 22.285156 36.101562 22.347656 36.117188 22.359375 C 36.347656 22.546875 36.402344 22.804688 36.21875 22.84375 C 35.683594 22.960938 35.367188 22.867188 35.140625 22.535156 C 35.050781 22.40625 34.898438 22.191406 34.800781 22.054688 C 34.699219 21.917969 34.558594 21.71875 34.480469 21.609375 C 34.21875 21.238281 34.226562 21.238281 33.191406 21.238281 C 32.082031 21.238281 32.183594 21.15625 32.167969 22.0625 C 32.152344 22.890625 32.167969 22.859375 31.699219 22.859375 C 31.1875 22.859375 31.238281 23.1875 31.242188 19.925781 C 31.242188 18.371094 31.253906 17.078125 31.273438 17.050781 C 31.335938 16.953125 31.507812 16.921875 31.898438 16.933594 L 32.292969 16.949219 L 32.445312 17.117188 M 22.449219 17.84375 C 22.386719 17.910156 22.378906 19.617188 22.441406 19.78125 L 22.480469 19.890625 L 23.109375 19.867188 C 23.835938 19.84375 23.960938 19.8125 24.195312 19.617188 C 24.773438 19.121094 24.683594 18.335938 24 17.929688 C 23.789062 17.800781 22.558594 17.734375 22.449219 17.84375 M 32.234375 18.503906 C 32.15625 18.601562 32.132812 20.132812 32.210938 20.28125 C 32.269531 20.390625 33.214844 20.453125 33.453125 20.363281 L 33.558594 20.324219 L 33.40625 20.089844 C 33.324219 19.964844 33.226562 19.816406 33.1875 19.761719 C 32.632812 18.945312 32.488281 18.734375 32.417969 18.617188 C 32.304688 18.433594 32.300781 18.429688 32.234375 18.503906 M 8.648438 20.578125 C 10.222656 22.105469 10.636719 22.507812 11.210938 23.070312 C 11.554688 23.410156 11.839844 23.703125 11.839844 23.722656 C 11.839844 23.765625 11.554688 24 11.5 24 C 11.476562 24 11.386719 24.039062 11.296875 24.082031 C 11.210938 24.128906 11.050781 24.195312 10.941406 24.226562 C 10.828125 24.261719 10.71875 24.304688 10.695312 24.324219 C 10.566406 24.429688 8.425781 24.5 8.101562 24.410156 C 7.878906 24.347656 7.882812 24.351562 7.878906 22.132812 C 7.878906 19.621094 7.808594 19.761719 8.648438 20.578125 "/>
</g>
</svg>
