<?xml version="1.0" encoding="UTF-8"?>
<svg xmlns="http://www.w3.org/2000/svg" xmlns:xlink="http://www.w3.org/1999/xlink" width="96pt" height="40pt" viewBox="0 0 96 40" version="1.1">
<g id="surface1">
<path style=" stroke:none;fill-rule:evenodd;fill:rgb(94.509804%,98.039216%,96.078431%);fill-opacity:1;" d="M 18.300781 7.550781 C 18.257812 7.574219 18.03125 7.609375 17.800781 7.632812 C 17.570312 7.660156 17.324219 7.699219 17.261719 7.722656 C 17.195312 7.746094 16.976562 7.800781 16.78125 7.84375 C 16.210938 7.964844 16.277344 7.191406 16.28125 13.84375 C 16.285156 18.796875 16.292969 19.597656 16.34375 19.640625 C 16.402344 19.6875 16.769531 19.371094 17.097656 18.988281 C 17.164062 18.910156 17.238281 18.839844 17.261719 18.832031 C 17.28125 18.824219 17.363281 18.746094 17.445312 18.660156 C 17.523438 18.574219 17.605469 18.503906 17.625 18.503906 C 17.644531 18.503906 17.804688 18.34375 17.980469 18.15625 C 18.15625 17.964844 18.40625 17.703125 18.539062 17.574219 C 18.796875 17.320312 18.886719 17.230469 18.957031 17.15625 C 18.980469 17.132812 19.097656 17.011719 19.21875 16.890625 C 19.339844 16.765625 19.535156 16.5625 19.65625 16.433594 C 19.773438 16.308594 19.882812 16.203125 19.898438 16.203125 C 19.917969 16.203125 20.34375 15.769531 20.691406 15.394531 C 20.722656 15.359375 20.777344 15.304688 20.8125 15.273438 C 20.921875 15.167969 21.097656 14.992188 21.140625 14.949219 C 21.160156 14.925781 21.214844 14.875 21.257812 14.835938 C 21.300781 14.796875 21.433594 14.660156 21.558594 14.53125 C 21.679688 14.402344 21.875 14.203125 21.988281 14.085938 C 22.46875 13.605469 22.902344 13.164062 22.964844 13.097656 C 23 13.0625 23.0625 13 23.105469 12.960938 C 23.144531 12.921875 23.210938 12.855469 23.25 12.820312 C 23.816406 12.246094 24.085938 11.972656 24.109375 11.949219 C 24.125 11.933594 24.300781 11.773438 24.496094 11.585938 C 24.691406 11.402344 24.921875 11.171875 25.015625 11.070312 C 25.105469 10.972656 25.257812 10.816406 25.351562 10.730469 C 25.445312 10.644531 25.519531 10.550781 25.519531 10.527344 C 25.519531 10.503906 25.570312 10.453125 25.632812 10.414062 C 25.695312 10.375 25.878906 10.214844 26.035156 10.054688 C 26.457031 9.632812 26.445312 9.535156 25.921875 9.257812 C 25.800781 9.195312 25.578125 9.070312 25.429688 8.976562 C 25.28125 8.882812 25.148438 8.808594 25.132812 8.808594 C 25.121094 8.808594 24.976562 8.746094 24.8125 8.667969 C 24.648438 8.589844 24.496094 8.523438 24.472656 8.523438 C 24.449219 8.523438 24.382812 8.5 24.324219 8.46875 C 23.855469 8.207031 22.054688 7.679688 21.636719 7.675781 C 21.539062 7.675781 21.34375 7.648438 21.199219 7.613281 C 20.898438 7.539062 18.4375 7.488281 18.300781 7.550781 M 28.171875 11.273438 C 28.125 11.292969 28.0625 11.351562 28.035156 11.402344 C 28.011719 11.453125 27.96875 11.507812 27.945312 11.523438 C 27.867188 11.570312 26.71875 12.703125 24.96875 14.464844 C 24.027344 15.410156 23.132812 16.300781 22.980469 16.441406 C 22.542969 16.84375 22.433594 16.984375 22.476562 17.097656 C 22.507812 17.179688 24.285156 19.003906 25.363281 20.066406 C 25.570312 20.265625 25.960938 20.65625 26.230469 20.933594 C 26.496094 21.207031 26.742188 21.457031 26.769531 21.484375 C 27.085938 21.792969 27.90625 22.617188 28.078125 22.804688 C 28.371094 23.117188 28.65625 23.410156 28.902344 23.644531 C 29.011719 23.746094 29.402344 24.144531 29.773438 24.523438 C 30.285156 25.050781 30.46875 25.214844 30.535156 25.203125 C 30.640625 25.1875 30.914062 24.683594 30.917969 24.5 C 30.917969 24.429688 30.945312 24.351562 30.976562 24.324219 C 31.007812 24.300781 31.046875 24.21875 31.0625 24.148438 C 31.078125 24.078125 31.113281 23.964844 31.140625 23.898438 C 31.167969 23.832031 31.226562 23.660156 31.265625 23.515625 C 31.304688 23.371094 31.367188 23.1875 31.40625 23.113281 C 31.449219 23.035156 31.480469 22.914062 31.480469 22.84375 C 31.480469 22.773438 31.503906 22.628906 31.535156 22.519531 C 31.804688 21.59375 31.914062 18.609375 31.699219 17.9375 C 31.667969 17.839844 31.632812 17.621094 31.617188 17.453125 C 31.601562 17.289062 31.574219 17.121094 31.554688 17.085938 C 31.539062 17.050781 31.496094 16.90625 31.464844 16.761719 C 31.351562 16.226562 31.050781 15.378906 30.777344 14.828125 C 30.707031 14.683594 30.640625 14.519531 30.625 14.460938 C 30.613281 14.40625 30.535156 14.246094 30.453125 14.109375 C 30.367188 13.96875 30.265625 13.792969 30.21875 13.714844 C 30.175781 13.640625 30.046875 13.414062 29.929688 13.21875 C 29.816406 13.019531 29.71875 12.835938 29.71875 12.8125 C 29.71875 12.789062 29.703125 12.769531 29.683594 12.769531 C 29.660156 12.769531 29.589844 12.691406 29.527344 12.597656 C 29.460938 12.5 29.375 12.386719 29.332031 12.34375 C 29.292969 12.300781 29.1875 12.164062 29.09375 12.039062 C 29.003906 11.917969 28.847656 11.734375 28.75 11.628906 C 28.652344 11.527344 28.5625 11.421875 28.554688 11.398438 C 28.527344 11.324219 28.265625 11.238281 28.171875 11.273438 M 10.351562 11.777344 C 10.023438 12.132812 9.257812 13.195312 9.15625 13.4375 C 9.128906 13.5 9.046875 13.648438 8.980469 13.757812 C 8.710938 14.195312 8.601562 14.390625 8.601562 14.433594 C 8.601562 14.457031 8.546875 14.585938 8.484375 14.722656 C 8.421875 14.859375 8.347656 15.042969 8.320312 15.132812 C 8.292969 15.21875 8.257812 15.3125 8.238281 15.332031 C 8.222656 15.355469 8.1875 15.445312 8.160156 15.535156 C 8.132812 15.625 8.097656 15.714844 8.078125 15.738281 C 8.0625 15.757812 8.035156 15.859375 8.019531 15.960938 C 8.003906 16.058594 7.96875 16.167969 7.941406 16.203125 C 7.914062 16.234375 7.871094 16.351562 7.847656 16.464844 C 7.824219 16.574219 7.765625 16.820312 7.71875 17.011719 C 7.671875 17.199219 7.617188 17.472656 7.597656 17.617188 C 7.578125 17.761719 7.535156 18.035156 7.5 18.222656 C 7.417969 18.691406 7.414062 21.03125 7.496094 21.394531 C 7.527344 21.527344 7.5625 21.746094 7.578125 21.878906 C 7.613281 22.21875 7.84375 23.207031 7.984375 23.617188 C 8.121094 24.015625 8.167969 24.144531 8.222656 24.253906 C 8.253906 24.320312 8.28125 24.394531 8.28125 24.421875 C 8.28125 24.453125 8.351562 24.636719 8.441406 24.828125 C 8.527344 25.023438 8.601562 25.199219 8.601562 25.222656 C 8.601562 25.246094 8.667969 25.378906 8.753906 25.511719 C 8.980469 25.871094 9.070312 26.023438 9.148438 26.183594 C 9.1875 26.257812 9.230469 26.332031 9.238281 26.34375 C 9.25 26.355469 9.3125 26.445312 9.378906 26.546875 C 9.445312 26.644531 9.554688 26.796875 9.628906 26.878906 C 9.699219 26.960938 9.761719 27.046875 9.761719 27.066406 C 9.761719 27.089844 9.78125 27.128906 9.808594 27.160156 C 9.835938 27.1875 9.90625 27.285156 9.964844 27.375 C 10.023438 27.460938 10.140625 27.609375 10.226562 27.699219 C 10.3125 27.789062 10.429688 27.921875 10.484375 27.992188 C 10.640625 28.179688 10.695312 28.152344 10.722656 27.878906 C 10.726562 27.84375 10.726562 24.160156 10.726562 19.6875 L 10.71875 11.554688 L 10.640625 11.554688 C 10.59375 11.554688 10.472656 11.648438 10.351562 11.777344 M 48.839844 11.921875 C 47.363281 11.945312 47.257812 11.957031 47.21875 12.085938 C 47.203125 12.128906 47.128906 12.234375 47.046875 12.316406 C 46.964844 12.398438 46.855469 12.519531 46.800781 12.585938 C 46.429688 13.03125 46.03125 13.492188 45.925781 13.59375 C 45.855469 13.660156 45.800781 13.734375 45.800781 13.761719 C 45.800781 13.789062 45.765625 13.835938 45.726562 13.867188 C 45.6875 13.894531 45.460938 14.15625 45.21875 14.445312 C 44.980469 14.734375 44.746094 15.007812 44.703125 15.058594 C 44.65625 15.105469 44.53125 15.257812 44.417969 15.394531 C 44.308594 15.53125 44.058594 15.828125 43.859375 16.058594 C 43.386719 16.609375 42.886719 17.199219 42.761719 17.347656 C 42.707031 17.414062 42.59375 17.542969 42.507812 17.632812 C 42.273438 17.894531 41.9375 18.316406 41.910156 18.394531 C 41.894531 18.433594 41.867188 18.464844 41.84375 18.464844 C 41.824219 18.464844 41.667969 18.632812 41.5 18.839844 C 41.332031 19.042969 41.132812 19.28125 41.058594 19.363281 C 40.980469 19.449219 40.921875 19.535156 40.921875 19.558594 C 40.921875 19.582031 40.878906 19.597656 40.828125 19.589844 L 40.738281 19.574219 L 40.730469 15.816406 L 40.722656 12.0625 L 40.632812 11.988281 C 40.550781 11.921875 40.460938 11.914062 39.550781 11.921875 L 38.554688 11.929688 L 38.515625 12.027344 C 38.472656 12.144531 38.472656 27.5 38.515625 27.609375 C 38.539062 27.675781 39.972656 27.722656 40.605469 27.679688 C 40.707031 27.671875 40.714844 27.335938 40.714844 23.730469 C 40.714844 19.535156 40.699219 19.734375 40.984375 20.109375 C 41.207031 20.40625 41.496094 20.75 41.597656 20.84375 C 41.636719 20.878906 41.730469 20.992188 41.804688 21.089844 C 42.042969 21.414062 42.488281 21.945312 42.917969 22.421875 C 42.976562 22.480469 43.09375 22.621094 43.179688 22.726562 C 43.269531 22.835938 43.429688 23.023438 43.539062 23.144531 C 43.648438 23.265625 43.773438 23.414062 43.820312 23.472656 C 43.972656 23.6875 44.226562 23.988281 44.414062 24.1875 C 44.585938 24.367188 44.960938 24.828125 45.265625 25.226562 C 45.335938 25.320312 45.480469 25.492188 45.59375 25.609375 C 45.707031 25.726562 45.808594 25.859375 45.820312 25.902344 C 45.835938 25.945312 45.859375 25.980469 45.878906 25.980469 C 45.910156 25.980469 46.40625 26.5625 46.636719 26.867188 C 46.691406 26.9375 46.804688 27.0625 46.890625 27.144531 C 46.976562 27.226562 47.082031 27.351562 47.125 27.425781 C 47.285156 27.683594 47.355469 27.691406 49.851562 27.679688 L 50.398438 27.675781 L 50.398438 27.578125 C 50.398438 27.476562 49.976562 26.949219 49.667969 26.660156 C 49.585938 26.585938 49.519531 26.507812 49.519531 26.480469 C 49.519531 26.457031 49.460938 26.378906 49.390625 26.3125 C 49.320312 26.242188 49.1875 26.101562 49.101562 25.996094 C 49.011719 25.890625 48.886719 25.75 48.820312 25.679688 C 48.753906 25.613281 48.585938 25.417969 48.441406 25.253906 C 47.957031 24.679688 47.046875 23.644531 46.566406 23.121094 C 46.398438 22.933594 46.234375 22.738281 46.203125 22.683594 C 46.167969 22.628906 46.128906 22.585938 46.117188 22.585938 C 46.101562 22.585938 45.949219 22.417969 45.777344 22.210938 C 45.601562 22.007812 45.378906 21.75 45.28125 21.644531 C 45.179688 21.535156 45.085938 21.421875 45.070312 21.394531 C 45.050781 21.363281 44.953125 21.246094 44.847656 21.136719 C 44.746094 21.027344 44.566406 20.832031 44.453125 20.699219 C 44.339844 20.570312 44.191406 20.402344 44.121094 20.324219 C 44.050781 20.246094 43.925781 20.082031 43.839844 19.957031 L 43.6875 19.730469 L 43.875 19.53125 C 43.976562 19.417969 44.117188 19.253906 44.1875 19.167969 C 44.257812 19.078125 44.386719 18.933594 44.476562 18.847656 C 44.566406 18.757812 44.640625 18.671875 44.640625 18.648438 C 44.640625 18.628906 44.699219 18.554688 44.769531 18.488281 C 44.839844 18.417969 44.980469 18.269531 45.078125 18.160156 C 45.179688 18.050781 45.367188 17.839844 45.5 17.695312 C 46.257812 16.859375 46.425781 16.671875 46.480469 16.589844 C 46.511719 16.539062 46.589844 16.445312 46.648438 16.382812 C 46.710938 16.316406 46.761719 16.25 46.761719 16.234375 C 46.761719 16.21875 46.796875 16.195312 46.839844 16.183594 C 46.882812 16.167969 46.921875 16.136719 46.921875 16.113281 C 46.921875 16.070312 47.125 15.832031 47.660156 15.238281 C 47.816406 15.070312 48.132812 14.710938 48.367188 14.445312 C 48.597656 14.175781 48.875 13.867188 48.976562 13.757812 C 49.078125 13.648438 49.191406 13.503906 49.230469 13.445312 C 49.265625 13.382812 49.324219 13.324219 49.359375 13.308594 C 49.390625 13.296875 49.507812 13.183594 49.613281 13.058594 C 49.722656 12.929688 49.929688 12.695312 50.074219 12.53125 C 50.222656 12.371094 50.351562 12.1875 50.367188 12.132812 C 50.394531 12.03125 50.34375 11.871094 50.289062 11.886719 C 50.273438 11.890625 49.621094 11.90625 48.839844 11.921875 M 63.730469 11.910156 L 63 11.921875 L 62.96875 12.03125 C 62.921875 12.203125 62.933594 27.585938 62.980469 27.632812 C 63.003906 27.65625 63.421875 27.675781 64.007812 27.683594 L 64.992188 27.695312 L 65.203125 27.5 L 65.199219 23.828125 C 65.199219 21.8125 65.207031 20.140625 65.21875 20.121094 C 65.285156 20.015625 65.375 20.085938 65.71875 20.527344 C 65.796875 20.625 65.917969 20.765625 65.988281 20.839844 C 66.0625 20.914062 66.121094 20.992188 66.121094 21.011719 C 66.121094 21.035156 66.164062 21.074219 66.21875 21.097656 C 66.273438 21.121094 66.328125 21.179688 66.34375 21.21875 C 66.371094 21.304688 66.695312 21.71875 66.914062 21.949219 C 67.089844 22.128906 67.125 22.171875 67.367188 22.484375 C 67.472656 22.617188 67.609375 22.78125 67.667969 22.851562 C 67.730469 22.917969 67.871094 23.082031 67.980469 23.210938 C 68.089844 23.339844 68.246094 23.523438 68.324219 23.613281 C 68.40625 23.703125 68.675781 24.03125 68.933594 24.34375 C 69.1875 24.65625 69.476562 25 69.578125 25.109375 C 69.679688 25.222656 69.8125 25.382812 69.878906 25.46875 C 69.945312 25.554688 70.085938 25.71875 70.1875 25.835938 C 70.292969 25.953125 70.476562 26.167969 70.597656 26.316406 C 70.714844 26.460938 70.835938 26.589844 70.867188 26.601562 C 70.894531 26.613281 70.9375 26.664062 70.957031 26.714844 C 70.976562 26.765625 71.082031 26.90625 71.1875 27.03125 C 71.292969 27.152344 71.414062 27.300781 71.453125 27.363281 C 71.492188 27.425781 71.59375 27.523438 71.679688 27.578125 L 71.832031 27.683594 L 73.246094 27.679688 C 74.023438 27.679688 74.675781 27.675781 74.695312 27.675781 C 74.78125 27.675781 74.675781 27.398438 74.527344 27.238281 C 74.4375 27.140625 74.316406 27 74.253906 26.921875 C 74.191406 26.847656 74.074219 26.714844 73.996094 26.632812 C 73.917969 26.550781 73.835938 26.457031 73.816406 26.417969 C 73.785156 26.363281 73.300781 25.816406 72.949219 25.445312 C 72.890625 25.378906 72.839844 25.316406 72.839844 25.304688 C 72.839844 25.285156 72.378906 24.75 72.171875 24.53125 C 72.121094 24.476562 72.078125 24.410156 72.078125 24.378906 C 72.078125 24.347656 72.0625 24.324219 72.042969 24.324219 C 72.007812 24.324219 71.902344 24.214844 71.558594 23.839844 C 71.503906 23.78125 71.386719 23.644531 71.300781 23.539062 C 71.210938 23.429688 71.039062 23.238281 70.921875 23.109375 C 70.800781 22.976562 70.601562 22.75 70.480469 22.597656 C 70.359375 22.449219 70.15625 22.214844 70.03125 22.085938 C 69.902344 21.953125 69.800781 21.828125 69.800781 21.808594 C 69.800781 21.789062 69.734375 21.71875 69.652344 21.644531 C 69.574219 21.574219 69.476562 21.46875 69.441406 21.40625 C 69.40625 21.347656 69.242188 21.148438 69.074219 20.964844 C 68.554688 20.382812 68.152344 19.902344 68.121094 19.816406 C 68.089844 19.734375 68.195312 19.589844 68.757812 18.964844 C 68.878906 18.828125 69.105469 18.574219 69.261719 18.402344 C 69.414062 18.226562 69.601562 18.015625 69.679688 17.929688 C 69.757812 17.847656 69.878906 17.710938 69.949219 17.625 C 70.082031 17.46875 70.3125 17.203125 70.683594 16.785156 C 70.800781 16.652344 70.945312 16.488281 71 16.417969 C 71.054688 16.351562 71.226562 16.152344 71.378906 15.976562 C 72.023438 15.25 72.375 14.84375 72.789062 14.355469 C 73.085938 14 73.832031 13.160156 74.207031 12.761719 C 75.011719 11.898438 75.039062 11.925781 73.304688 11.921875 C 71.808594 11.917969 71.800781 11.917969 71.574219 12.152344 C 71.238281 12.503906 71 12.769531 70.957031 12.859375 C 70.929688 12.910156 70.875 12.972656 70.832031 13.003906 C 70.792969 13.03125 70.683594 13.160156 70.589844 13.285156 C 70.5 13.410156 70.328125 13.621094 70.210938 13.757812 C 70.09375 13.890625 69.964844 14.046875 69.917969 14.101562 C 69.878906 14.15625 69.792969 14.257812 69.730469 14.328125 C 69.667969 14.398438 69.53125 14.5625 69.421875 14.6875 C 69.308594 14.8125 69.167969 14.980469 69.101562 15.054688 C 68.910156 15.269531 68.738281 15.472656 68.476562 15.796875 C 68.339844 15.964844 68.128906 16.214844 68.007812 16.351562 C 67.882812 16.488281 67.71875 16.683594 67.640625 16.785156 C 67.5625 16.882812 67.410156 17.0625 67.300781 17.179688 C 67.191406 17.296875 67.019531 17.496094 66.921875 17.625 C 66.59375 18.035156 66.320312 18.359375 66.007812 18.699219 C 65.839844 18.882812 65.691406 19.058594 65.679688 19.089844 C 65.652344 19.164062 65.324219 19.515625 65.285156 19.515625 C 65.207031 19.515625 65.203125 19.285156 65.199219 15.722656 C 65.191406 12.359375 65.1875 12.039062 65.125 11.988281 C 65.042969 11.914062 64.683594 11.894531 63.730469 11.910156 M 50.789062 11.976562 C 50.695312 12.046875 50.683594 27.480469 50.777344 27.605469 C 50.859375 27.714844 52.871094 27.726562 52.929688 27.617188 C 52.953125 27.574219 52.964844 26.222656 52.960938 23.933594 C 52.957031 20.027344 52.957031 20.023438 53.105469 20.089844 C 53.15625 20.113281 53.199219 20.148438 53.199219 20.164062 C 53.199219 20.203125 53.433594 20.492188 53.660156 20.738281 C 53.757812 20.84375 53.839844 20.949219 53.839844 20.972656 C 53.839844 20.996094 53.894531 21.058594 53.957031 21.117188 C 54.023438 21.171875 54.117188 21.28125 54.164062 21.367188 C 54.214844 21.449219 54.3125 21.585938 54.386719 21.675781 C 54.460938 21.765625 54.570312 21.898438 54.628906 21.976562 C 54.691406 22.050781 54.777344 22.152344 54.820312 22.199219 C 54.863281 22.246094 54.925781 22.328125 54.953125 22.382812 C 54.996094 22.472656 55.328125 22.882812 55.554688 23.132812 C 55.695312 23.285156 56.042969 23.757812 56.085938 23.859375 C 56.113281 23.914062 56.148438 23.960938 56.164062 23.960938 C 56.183594 23.960938 56.375 24.183594 56.589844 24.453125 C 57.046875 25.03125 57.078125 25.070312 57.167969 25.179688 C 57.207031 25.226562 57.238281 25.28125 57.238281 25.300781 C 57.238281 25.320312 57.296875 25.398438 57.371094 25.46875 C 57.441406 25.539062 57.527344 25.632812 57.558594 25.679688 C 57.59375 25.722656 57.664062 25.8125 57.71875 25.882812 C 57.773438 25.949219 57.863281 26.066406 57.917969 26.144531 C 57.976562 26.21875 58.097656 26.367188 58.191406 26.46875 C 58.285156 26.570312 58.402344 26.710938 58.449219 26.78125 C 58.753906 27.199219 59.054688 27.578125 59.125 27.628906 C 59.238281 27.710938 61.945312 27.710938 61.929688 27.628906 C 61.902344 27.511719 61.78125 27.285156 61.675781 27.152344 C 61.480469 26.90625 61.304688 26.699219 61.210938 26.605469 C 61.089844 26.488281 60.640625 25.894531 60.640625 25.859375 C 60.640625 25.84375 60.542969 25.730469 60.421875 25.605469 C 60.300781 25.484375 60.136719 25.296875 60.054688 25.1875 C 59.972656 25.078125 59.894531 24.980469 59.878906 24.96875 C 59.867188 24.957031 59.726562 24.785156 59.566406 24.585938 C 59.410156 24.386719 59.179688 24.105469 59.058594 23.960938 C 58.5625 23.371094 58.484375 23.273438 58.347656 23.0625 C 58.265625 22.941406 58.136719 22.785156 58.0625 22.714844 C 57.984375 22.640625 57.917969 22.570312 57.917969 22.550781 C 57.917969 22.519531 57.878906 22.46875 57.667969 22.222656 C 57.332031 21.835938 57.339844 21.65625 57.691406 21.65625 C 57.742188 21.65625 57.824219 21.628906 57.878906 21.601562 C 57.933594 21.570312 58.105469 21.476562 58.261719 21.394531 C 58.414062 21.3125 58.585938 21.203125 58.640625 21.152344 C 58.695312 21.101562 58.839844 20.992188 58.957031 20.910156 C 59.078125 20.828125 59.207031 20.710938 59.246094 20.648438 C 59.285156 20.585938 59.351562 20.519531 59.398438 20.507812 C 59.441406 20.492188 59.480469 20.464844 59.480469 20.441406 C 59.480469 20.421875 59.539062 20.339844 59.609375 20.257812 C 59.925781 19.898438 60.519531 18.832031 60.519531 18.628906 C 60.519531 18.589844 60.546875 18.535156 60.578125 18.507812 C 60.609375 18.480469 60.648438 18.375 60.660156 18.269531 C 60.675781 18.164062 60.714844 17.949219 60.746094 17.789062 C 60.820312 17.425781 60.808594 16.238281 60.730469 16.15625 C 60.703125 16.128906 60.679688 16.035156 60.679688 15.949219 C 60.679688 15.808594 60.519531 15.21875 60.4375 15.070312 C 60.421875 15.039062 60.328125 14.855469 60.234375 14.667969 C 60.058594 14.3125 59.921875 14.089844 59.871094 14.066406 C 59.855469 14.058594 59.839844 14.035156 59.839844 14.011719 C 59.839844 13.960938 59.3125 13.355469 59.144531 13.214844 C 59.078125 13.160156 59.011719 13.101562 59 13.089844 C 58.9375 13.027344 58.519531 12.726562 58.488281 12.726562 C 58.46875 12.726562 58.417969 12.691406 58.378906 12.648438 C 58.339844 12.601562 58.285156 12.566406 58.257812 12.566406 C 58.234375 12.566406 58.097656 12.507812 57.957031 12.433594 C 57.011719 11.949219 56.710938 11.917969 53.378906 11.921875 C 51.382812 11.925781 50.84375 11.933594 50.789062 11.976562 M 75.402344 11.996094 C 75.339844 12.109375 75.347656 27.441406 75.40625 27.574219 C 75.457031 27.6875 75.316406 27.675781 77.101562 27.691406 C 77.742188 27.699219 77.679688 27.929688 77.679688 25.582031 C 77.679688 23.753906 77.683594 23.597656 77.75 23.515625 L 77.820312 23.429688 L 80.355469 23.441406 L 82.886719 23.453125 L 82.984375 23.574219 C 83.039062 23.640625 83.121094 23.769531 83.164062 23.863281 C 83.207031 23.953125 83.3125 24.097656 83.402344 24.183594 C 83.488281 24.269531 83.558594 24.363281 83.558594 24.394531 C 83.558594 24.425781 83.601562 24.503906 83.648438 24.570312 C 83.699219 24.636719 83.777344 24.738281 83.824219 24.796875 C 83.871094 24.859375 84.097656 25.199219 84.332031 25.554688 C 84.566406 25.910156 84.792969 26.246094 84.839844 26.304688 C 84.933594 26.425781 85.121094 26.695312 85.414062 27.132812 C 85.808594 27.722656 85.75 27.695312 86.699219 27.683594 C 86.765625 27.683594 87.175781 27.679688 87.605469 27.675781 C 88.21875 27.671875 88.398438 27.65625 88.414062 27.617188 C 88.445312 27.53125 88.398438 27.386719 88.285156 27.234375 C 88.230469 27.15625 88.078125 26.929688 87.945312 26.730469 C 87.816406 26.527344 87.683594 26.347656 87.65625 26.332031 C 87.625 26.3125 87.574219 26.238281 87.542969 26.164062 C 87.492188 26.035156 87.183594 25.578125 87.066406 25.453125 C 87.035156 25.421875 86.996094 25.347656 86.980469 25.292969 C 86.960938 25.238281 86.914062 25.144531 86.871094 25.089844 C 86.601562 24.730469 86.542969 24.648438 86.449219 24.484375 C 86.390625 24.382812 86.332031 24.292969 86.320312 24.28125 C 86.277344 24.242188 85.839844 23.566406 85.839844 23.535156 C 85.839844 23.519531 85.792969 23.449219 85.738281 23.378906 C 85.472656 23.046875 85.292969 22.800781 85.273438 22.746094 C 85.238281 22.652344 84.765625 21.949219 84.71875 21.917969 C 84.699219 21.90625 84.679688 21.867188 84.679688 21.835938 C 84.679688 21.804688 84.597656 21.671875 84.5 21.539062 C 84.402344 21.410156 84.203125 21.121094 84.0625 20.902344 C 83.789062 20.484375 83.621094 20.234375 83.460938 20 C 83.40625 19.921875 83.34375 19.824219 83.324219 19.777344 C 83.304688 19.734375 83.175781 19.539062 83.035156 19.34375 C 82.753906 18.953125 82.492188 18.558594 82.398438 18.390625 C 82.367188 18.332031 82.253906 18.164062 82.152344 18.019531 C 81.769531 17.488281 81.726562 17.425781 81.601562 17.199219 C 81.53125 17.074219 81.4375 16.945312 81.398438 16.917969 C 81.359375 16.890625 81.300781 16.796875 81.265625 16.710938 C 81.226562 16.625 81.167969 16.523438 81.128906 16.488281 C 81.089844 16.453125 81.03125 16.375 81 16.3125 C 80.96875 16.253906 80.753906 15.929688 80.53125 15.597656 C 80.304688 15.261719 80.121094 14.972656 80.121094 14.953125 C 80.121094 14.933594 80.050781 14.828125 79.96875 14.722656 C 79.882812 14.613281 79.734375 14.398438 79.632812 14.242188 C 79.535156 14.085938 79.414062 13.925781 79.367188 13.882812 C 79.320312 13.839844 79.28125 13.773438 79.28125 13.734375 C 79.28125 13.695312 79.226562 13.605469 79.15625 13.53125 C 79.089844 13.460938 79.011719 13.34375 78.984375 13.273438 C 78.953125 13.203125 78.882812 13.097656 78.824219 13.039062 C 78.765625 12.980469 78.71875 12.90625 78.71875 12.878906 C 78.71875 12.847656 78.636719 12.714844 78.539062 12.585938 C 78.4375 12.457031 78.328125 12.289062 78.292969 12.210938 C 78.15625 11.925781 78.132812 11.917969 76.710938 11.917969 C 75.507812 11.917969 75.441406 11.921875 75.402344 11.996094 M 56.160156 14.285156 C 56.832031 14.375 57.359375 14.6875 57.898438 15.324219 C 58.472656 16.003906 58.648438 17.320312 58.257812 18.070312 C 58.203125 18.175781 58.160156 18.289062 58.160156 18.328125 C 58.160156 18.476562 57.226562 19.433594 57.082031 19.433594 C 57.058594 19.433594 56.945312 19.480469 56.835938 19.539062 C 56.722656 19.59375 56.539062 19.652344 56.425781 19.664062 C 56.3125 19.675781 56.191406 19.703125 56.15625 19.71875 C 56.078125 19.761719 53.050781 19.78125 53.007812 19.742188 C 52.929688 19.65625 52.976562 14.347656 53.058594 14.285156 C 53.140625 14.222656 55.679688 14.222656 56.160156 14.285156 M 77.867188 15.769531 C 77.914062 15.839844 78.042969 16.023438 78.148438 16.175781 C 78.253906 16.328125 78.367188 16.503906 78.402344 16.5625 C 78.433594 16.621094 78.570312 16.828125 78.703125 17.027344 C 78.832031 17.226562 78.953125 17.414062 78.96875 17.441406 C 78.988281 17.472656 79.011719 17.519531 79.03125 17.550781 C 79.089844 17.660156 79.292969 17.960938 79.320312 17.980469 C 79.335938 17.992188 79.40625 18.109375 79.476562 18.242188 C 79.550781 18.375 79.621094 18.492188 79.636719 18.503906 C 79.652344 18.515625 79.761719 18.679688 79.886719 18.867188 C 80.007812 19.058594 80.214844 19.371094 80.34375 19.566406 C 80.691406 20.085938 80.792969 20.25 80.859375 20.382812 C 80.894531 20.449219 80.984375 20.585938 81.0625 20.6875 C 81.40625 21.140625 81.445312 21.128906 79.363281 21.132812 C 77.988281 21.132812 77.820312 21.125 77.753906 21.066406 C 77.683594 21 77.679688 20.863281 77.679688 18.34375 C 77.679688 15.453125 77.675781 15.488281 77.867188 15.769531 M 16.320312 19.898438 C 16.25 20.089844 16.265625 31.585938 16.335938 31.699219 C 16.65625 32.191406 21.214844 32.300781 22.371094 31.84375 C 22.433594 31.816406 22.542969 31.796875 22.613281 31.796875 C 22.683594 31.796875 22.875 31.742188 23.039062 31.671875 C 23.207031 31.605469 23.421875 31.523438 23.519531 31.496094 C 23.773438 31.417969 23.980469 31.339844 24.046875 31.289062 C 24.074219 31.261719 24.160156 31.230469 24.238281 31.21875 C 24.3125 31.203125 24.464844 31.148438 24.578125 31.09375 C 25.273438 30.761719 25.492188 30.652344 25.753906 30.507812 C 25.917969 30.417969 26.078125 30.320312 26.113281 30.289062 C 26.152344 30.261719 26.210938 30.222656 26.25 30.210938 C 26.453125 30.136719 26.34375 29.941406 25.816406 29.414062 C 25.542969 29.136719 24.953125 28.539062 24.507812 28.089844 C 24.0625 27.636719 23.550781 27.121094 23.367188 26.9375 C 23.183594 26.753906 22.667969 26.238281 22.226562 25.785156 C 21.78125 25.335938 21.269531 24.816406 21.082031 24.632812 C 20.898438 24.453125 20.714844 24.265625 20.675781 24.222656 C 20.613281 24.15625 19.699219 23.230469 19.527344 23.058594 C 19.5 23.03125 19.429688 22.953125 19.371094 22.886719 C 18.996094 22.460938 18.542969 22.015625 18.410156 21.945312 C 18.359375 21.917969 18.320312 21.875 18.320312 21.851562 C 18.320312 21.792969 17.351562 20.808594 17.292969 20.808594 C 17.265625 20.808594 17.222656 20.765625 17.195312 20.71875 C 17.167969 20.667969 17.070312 20.542969 16.976562 20.445312 C 16.878906 20.34375 16.773438 20.222656 16.738281 20.171875 C 16.703125 20.121094 16.648438 20.082031 16.617188 20.082031 C 16.585938 20.082031 16.519531 20.015625 16.476562 19.9375 C 16.375 19.769531 16.367188 19.769531 16.320312 19.898438 M 95.921875 36.726562 C 95.921875 38.800781 95.933594 39.878906 95.960938 39.878906 C 95.984375 39.878906 96 38.800781 96 36.726562 C 96 34.652344 95.984375 33.574219 95.960938 33.574219 C 95.933594 33.574219 95.921875 34.652344 95.921875 36.726562 "/>
<path style=" stroke:none;fill-rule:evenodd;fill:rgb(1.568627%,67.058824%,30.196078%);fill-opacity:1;" d="M 0 19.9375 L 0 39.878906 L 95.921875 39.878906 L 95.921875 36.726562 C 95.921875 34.652344 95.933594 33.574219 95.960938 33.574219 C 95.988281 33.574219 96 27.953125 96 16.789062 L 96 0 L 0 0 L 0 19.9375 M 21.199219 7.613281 C 21.34375 7.648438 21.539062 7.675781 21.636719 7.675781 C 22.054688 7.679688 23.855469 8.207031 24.324219 8.46875 C 24.382812 8.5 24.449219 8.523438 24.472656 8.523438 C 24.496094 8.523438 24.648438 8.589844 24.8125 8.667969 C 24.976562 8.746094 25.121094 8.808594 25.132812 8.808594 C 25.148438 8.808594 25.28125 8.882812 25.429688 8.976562 C 25.578125 9.070312 25.800781 9.195312 25.921875 9.257812 C 26.445312 9.535156 26.457031 9.632812 26.035156 10.054688 C 25.878906 10.214844 25.695312 10.375 25.632812 10.414062 C 25.570312 10.453125 25.519531 10.503906 25.519531 10.527344 C 25.519531 10.550781 25.445312 10.644531 25.351562 10.730469 C 25.257812 10.816406 25.105469 10.972656 25.015625 11.070312 C 24.921875 11.171875 24.691406 11.402344 24.496094 11.585938 C 24.300781 11.773438 24.125 11.933594 24.109375 11.949219 C 24.085938 11.972656 23.816406 12.246094 23.25 12.820312 C 23.210938 12.855469 23.144531 12.921875 23.105469 12.960938 C 23.0625 13 23 13.0625 22.964844 13.097656 C 22.902344 13.164062 22.46875 13.605469 21.988281 14.085938 C 21.875 14.203125 21.679688 14.402344 21.558594 14.53125 C 21.433594 14.660156 21.300781 14.796875 21.257812 14.835938 C 21.214844 14.875 21.160156 14.925781 21.140625 14.949219 C 21.097656 14.992188 20.921875 15.167969 20.8125 15.273438 C 20.777344 15.304688 20.722656 15.359375 20.691406 15.394531 C 20.34375 15.769531 19.917969 16.203125 19.898438 16.203125 C 19.882812 16.203125 19.773438 16.308594 19.65625 16.433594 C 19.535156 16.5625 19.339844 16.765625 19.21875 16.890625 C 19.097656 17.011719 18.980469 17.132812 18.957031 17.15625 C 18.886719 17.230469 18.796875 17.320312 18.539062 17.574219 C 18.40625 17.703125 18.15625 17.964844 17.980469 18.15625 C 17.804688 18.34375 17.644531 18.503906 17.625 18.503906 C 17.605469 18.503906 17.523438 18.574219 17.445312 18.660156 C 17.363281 18.746094 17.28125 18.824219 17.261719 18.832031 C 17.238281 18.839844 17.164062 18.910156 17.097656 18.988281 C 16.769531 19.371094 16.402344 19.6875 16.34375 19.640625 C 16.292969 19.597656 16.285156 18.796875 16.28125 13.84375 C 16.277344 7.191406 16.210938 7.964844 16.78125 7.84375 C 16.976562 7.800781 17.195312 7.746094 17.261719 7.722656 C 17.324219 7.699219 17.570312 7.660156 17.800781 7.632812 C 18.03125 7.609375 18.257812 7.574219 18.300781 7.550781 C 18.4375 7.488281 20.898438 7.539062 21.199219 7.613281 M 28.554688 11.398438 C 28.5625 11.421875 28.652344 11.527344 28.75 11.628906 C 28.847656 11.734375 29.003906 11.917969 29.09375 12.039062 C 29.1875 12.164062 29.292969 12.300781 29.332031 12.34375 C 29.375 12.386719 29.460938 12.5 29.527344 12.597656 C 29.589844 12.691406 29.660156 12.769531 29.683594 12.769531 C 29.703125 12.769531 29.71875 12.789062 29.71875 12.8125 C 29.71875 12.835938 29.816406 13.019531 29.929688 13.21875 C 30.046875 13.414062 30.175781 13.640625 30.21875 13.714844 C 30.265625 13.792969 30.367188 13.96875 30.453125 14.109375 C 30.535156 14.246094 30.613281 14.40625 30.625 14.460938 C 30.640625 14.519531 30.707031 14.683594 30.777344 14.828125 C 31.050781 15.378906 31.351562 16.226562 31.464844 16.761719 C 31.496094 16.90625 31.539062 17.050781 31.554688 17.085938 C 31.574219 17.121094 31.601562 17.289062 31.617188 17.453125 C 31.632812 17.621094 31.667969 17.839844 31.699219 17.9375 C 31.914062 18.609375 31.804688 21.59375 31.535156 22.519531 C 31.503906 22.628906 31.480469 22.773438 31.480469 22.84375 C 31.480469 22.914062 31.449219 23.035156 31.40625 23.113281 C 31.367188 23.1875 31.304688 23.371094 31.265625 23.515625 C 31.226562 23.660156 31.167969 23.832031 31.140625 23.898438 C 31.113281 23.964844 31.078125 24.078125 31.0625 24.148438 C 31.046875 24.21875 31.007812 24.300781 30.976562 24.324219 C 30.945312 24.351562 30.917969 24.429688 30.917969 24.5 C 30.914062 24.683594 30.640625 25.1875 30.535156 25.203125 C 30.46875 25.214844 30.285156 25.050781 29.773438 24.523438 C 29.402344 24.144531 29.011719 23.746094 28.902344 23.644531 C 28.65625 23.410156 28.371094 23.117188 28.078125 22.804688 C 27.90625 22.617188 27.085938 21.792969 26.769531 21.484375 C 26.742188 21.457031 26.496094 21.207031 26.230469 20.933594 C 25.960938 20.65625 25.570312 20.265625 25.363281 20.066406 C 24.285156 19.003906 22.507812 17.179688 22.476562 17.097656 C 22.433594 16.984375 22.542969 16.84375 22.980469 16.441406 C 23.132812 16.300781 24.027344 15.410156 24.96875 14.464844 C 26.71875 12.703125 27.867188 11.570312 27.945312 11.523438 C 27.96875 11.507812 28.011719 11.453125 28.035156 11.402344 C 28.125 11.234375 28.496094 11.230469 28.554688 11.398438 M 10.726562 19.6875 C 10.726562 24.160156 10.726562 27.84375 10.722656 27.878906 C 10.695312 28.152344 10.640625 28.179688 10.484375 27.992188 C 10.429688 27.921875 10.3125 27.789062 10.226562 27.699219 C 10.140625 27.609375 10.023438 27.460938 9.964844 27.375 C 9.90625 27.285156 9.835938 27.1875 9.808594 27.160156 C 9.78125 27.128906 9.761719 27.089844 9.761719 27.066406 C 9.761719 27.046875 9.699219 26.960938 9.628906 26.878906 C 9.554688 26.796875 9.445312 26.644531 9.378906 26.546875 C 9.3125 26.445312 9.25 26.355469 9.238281 26.34375 C 9.230469 26.332031 9.1875 26.257812 9.148438 26.183594 C 9.070312 26.023438 8.980469 25.871094 8.753906 25.511719 C 8.667969 25.378906 8.601562 25.246094 8.601562 25.222656 C 8.601562 25.199219 8.527344 25.023438 8.441406 24.828125 C 8.351562 24.636719 8.28125 24.453125 8.28125 24.421875 C 8.28125 24.394531 8.253906 24.320312 8.222656 24.253906 C 8.167969 24.144531 8.121094 24.015625 7.984375 23.617188 C 7.84375 23.207031 7.613281 22.21875 7.578125 21.878906 C 7.5625 21.746094 7.527344 21.527344 7.496094 21.394531 C 7.414062 21.03125 7.417969 18.691406 7.5 18.222656 C 7.535156 18.035156 7.578125 17.761719 7.597656 17.617188 C 7.617188 17.472656 7.671875 17.199219 7.71875 17.011719 C 7.765625 16.820312 7.824219 16.574219 7.847656 16.464844 C 7.871094 16.351562 7.914062 16.234375 7.941406 16.203125 C 7.96875 16.167969 8.003906 16.058594 8.019531 15.960938 C 8.035156 15.859375 8.0625 15.757812 8.078125 15.738281 C 8.097656 15.714844 8.132812 15.625 8.160156 15.535156 C 8.1875 15.445312 8.222656 15.355469 8.238281 15.332031 C 8.257812 15.3125 8.292969 15.21875 8.320312 15.132812 C 8.347656 15.042969 8.421875 14.859375 8.484375 14.722656 C 8.546875 14.585938 8.601562 14.457031 8.601562 14.433594 C 8.601562 14.390625 8.710938 14.195312 8.980469 13.757812 C 9.046875 13.648438 9.128906 13.5 9.15625 13.4375 C 9.183594 13.371094 9.316406 13.15625 9.453125 12.960938 C 10.078125 12.058594 10.5 11.554688 10.640625 11.554688 L 10.71875 11.554688 L 10.726562 19.6875 M 50.355469 11.953125 C 50.421875 12.078125 50.351562 12.222656 50.074219 12.53125 C 49.929688 12.695312 49.722656 12.929688 49.613281 13.058594 C 49.507812 13.183594 49.390625 13.296875 49.359375 13.308594 C 49.324219 13.324219 49.265625 13.382812 49.230469 13.445312 C 49.191406 13.503906 49.078125 13.648438 48.976562 13.757812 C 48.875 13.867188 48.597656 14.175781 48.367188 14.445312 C 48.132812 14.710938 47.816406 15.070312 47.660156 15.238281 C 47.125 15.832031 46.921875 16.070312 46.921875 16.113281 C 46.921875 16.136719 46.882812 16.167969 46.839844 16.183594 C 46.796875 16.195312 46.761719 16.21875 46.761719 16.234375 C 46.761719 16.25 46.710938 16.316406 46.648438 16.382812 C 46.589844 16.445312 46.511719 16.539062 46.480469 16.589844 C 46.425781 16.671875 46.257812 16.859375 45.5 17.695312 C 45.367188 17.839844 45.179688 18.050781 45.078125 18.160156 C 44.980469 18.269531 44.839844 18.417969 44.769531 18.488281 C 44.699219 18.554688 44.640625 18.628906 44.640625 18.648438 C 44.640625 18.671875 44.566406 18.757812 44.476562 18.847656 C 44.386719 18.933594 44.257812 19.078125 44.1875 19.167969 C 44.117188 19.253906 43.976562 19.417969 43.875 19.53125 L 43.6875 19.730469 L 43.839844 19.957031 C 43.925781 20.082031 44.050781 20.246094 44.121094 20.324219 C 44.191406 20.402344 44.339844 20.570312 44.453125 20.699219 C 44.566406 20.832031 44.746094 21.027344 44.847656 21.136719 C 44.953125 21.246094 45.050781 21.363281 45.070312 21.394531 C 45.085938 21.421875 45.179688 21.535156 45.28125 21.644531 C 45.378906 21.75 45.601562 22.007812 45.777344 22.210938 C 45.949219 22.417969 46.101562 22.585938 46.117188 22.585938 C 46.128906 22.585938 46.167969 22.628906 46.203125 22.683594 C 46.234375 22.738281 46.398438 22.933594 46.566406 23.121094 C 47.046875 23.644531 47.957031 24.679688 48.441406 25.253906 C 48.585938 25.417969 48.753906 25.613281 48.820312 25.679688 C 48.886719 25.75 49.011719 25.890625 49.101562 25.996094 C 49.1875 26.101562 49.320312 26.242188 49.390625 26.3125 C 49.460938 26.378906 49.519531 26.457031 49.519531 26.480469 C 49.519531 26.507812 49.585938 26.585938 49.667969 26.660156 C 49.976562 26.949219 50.398438 27.476562 50.398438 27.578125 L 50.398438 27.675781 L 49.851562 27.679688 C 47.355469 27.691406 47.285156 27.683594 47.125 27.425781 C 47.082031 27.351562 46.976562 27.226562 46.890625 27.144531 C 46.804688 27.0625 46.691406 26.9375 46.636719 26.867188 C 46.40625 26.5625 45.910156 25.980469 45.878906 25.980469 C 45.859375 25.980469 45.835938 25.945312 45.820312 25.902344 C 45.808594 25.859375 45.707031 25.726562 45.59375 25.609375 C 45.480469 25.492188 45.335938 25.320312 45.265625 25.226562 C 44.960938 24.828125 44.585938 24.367188 44.414062 24.1875 C 44.226562 23.988281 43.972656 23.6875 43.820312 23.472656 C 43.773438 23.414062 43.648438 23.265625 43.539062 23.144531 C 43.429688 23.023438 43.269531 22.835938 43.179688 22.726562 C 43.09375 22.621094 42.976562 22.480469 42.917969 22.421875 C 42.488281 21.945312 42.042969 21.414062 41.804688 21.089844 C 41.730469 20.992188 41.636719 20.878906 41.597656 20.84375 C 41.496094 20.75 41.207031 20.40625 40.984375 20.109375 C 40.699219 19.734375 40.714844 19.535156 40.714844 23.730469 C 40.714844 27.335938 40.707031 27.671875 40.605469 27.679688 C 39.972656 27.722656 38.539062 27.675781 38.515625 27.609375 C 38.472656 27.5 38.472656 12.144531 38.515625 12.027344 L 38.554688 11.929688 L 39.550781 11.921875 C 40.460938 11.914062 40.550781 11.921875 40.632812 11.988281 L 40.722656 12.0625 L 40.730469 15.816406 L 40.738281 19.574219 L 40.828125 19.589844 C 40.878906 19.597656 40.921875 19.582031 40.921875 19.558594 C 40.921875 19.535156 40.980469 19.449219 41.058594 19.363281 C 41.132812 19.28125 41.332031 19.042969 41.5 18.839844 C 41.667969 18.632812 41.824219 18.464844 41.84375 18.464844 C 41.867188 18.464844 41.894531 18.433594 41.910156 18.394531 C 41.9375 18.316406 42.273438 17.894531 42.507812 17.632812 C 42.59375 17.542969 42.707031 17.414062 42.761719 17.347656 C 42.886719 17.199219 43.386719 16.609375 43.859375 16.058594 C 44.058594 15.828125 44.308594 15.53125 44.417969 15.394531 C 44.53125 15.257812 44.65625 15.105469 44.703125 15.058594 C 44.746094 15.007812 44.980469 14.734375 45.21875 14.445312 C 45.460938 14.15625 45.6875 13.894531 45.726562 13.867188 C 45.765625 13.835938 45.800781 13.789062 45.800781 13.761719 C 45.800781 13.734375 45.855469 13.660156 45.925781 13.59375 C 46.03125 13.492188 46.429688 13.03125 46.800781 12.585938 C 46.855469 12.519531 46.964844 12.398438 47.046875 12.316406 C 47.128906 12.234375 47.203125 12.128906 47.21875 12.085938 C 47.257812 11.957031 47.363281 11.945312 48.839844 11.921875 C 49.621094 11.90625 50.273438 11.890625 50.289062 11.886719 C 50.304688 11.882812 50.335938 11.914062 50.355469 11.953125 M 65.125 11.988281 C 65.1875 12.039062 65.191406 12.359375 65.199219 15.722656 C 65.203125 19.285156 65.207031 19.515625 65.285156 19.515625 C 65.324219 19.515625 65.652344 19.164062 65.679688 19.089844 C 65.691406 19.058594 65.839844 18.882812 66.007812 18.699219 C 66.320312 18.359375 66.59375 18.035156 66.921875 17.625 C 67.019531 17.496094 67.191406 17.296875 67.300781 17.179688 C 67.410156 17.0625 67.5625 16.882812 67.640625 16.785156 C 67.71875 16.683594 67.882812 16.488281 68.007812 16.351562 C 68.128906 16.214844 68.339844 15.964844 68.476562 15.796875 C 68.738281 15.472656 68.910156 15.269531 69.101562 15.054688 C 69.167969 14.980469 69.308594 14.8125 69.421875 14.6875 C 69.53125 14.5625 69.667969 14.398438 69.730469 14.328125 C 69.792969 14.257812 69.878906 14.15625 69.917969 14.101562 C 69.964844 14.046875 70.09375 13.890625 70.210938 13.757812 C 70.328125 13.621094 70.5 13.410156 70.589844 13.285156 C 70.683594 13.160156 70.792969 13.03125 70.832031 13.003906 C 70.875 12.972656 70.929688 12.910156 70.957031 12.859375 C 71 12.769531 71.238281 12.503906 71.574219 12.152344 C 71.800781 11.917969 71.808594 11.917969 73.304688 11.921875 C 75.039062 11.925781 75.011719 11.898438 74.207031 12.761719 C 73.832031 13.160156 73.085938 14 72.789062 14.355469 C 72.375 14.84375 72.023438 15.25 71.378906 15.976562 C 71.226562 16.152344 71.054688 16.351562 71 16.417969 C 70.945312 16.488281 70.800781 16.652344 70.683594 16.785156 C 70.3125 17.203125 70.082031 17.46875 69.949219 17.625 C 69.878906 17.710938 69.757812 17.847656 69.679688 17.929688 C 69.601562 18.015625 69.414062 18.226562 69.261719 18.402344 C 69.105469 18.574219 68.878906 18.828125 68.757812 18.964844 C 68.195312 19.589844 68.089844 19.734375 68.121094 19.816406 C 68.152344 19.902344 68.554688 20.382812 69.074219 20.964844 C 69.242188 21.148438 69.40625 21.347656 69.441406 21.40625 C 69.476562 21.46875 69.574219 21.574219 69.652344 21.644531 C 69.734375 21.71875 69.800781 21.789062 69.800781 21.808594 C 69.800781 21.828125 69.902344 21.953125 70.03125 22.085938 C 70.15625 22.214844 70.359375 22.449219 70.480469 22.597656 C 70.601562 22.75 70.800781 22.976562 70.921875 23.109375 C 71.039062 23.238281 71.210938 23.429688 71.300781 23.539062 C 71.386719 23.644531 71.503906 23.78125 71.558594 23.839844 C 71.902344 24.214844 72.007812 24.324219 72.042969 24.324219 C 72.0625 24.324219 72.078125 24.347656 72.078125 24.378906 C 72.078125 24.410156 72.121094 24.476562 72.171875 24.53125 C 72.378906 24.75 72.839844 25.285156 72.839844 25.304688 C 72.839844 25.316406 72.890625 25.378906 72.949219 25.445312 C 73.300781 25.816406 73.785156 26.363281 73.816406 26.417969 C 73.835938 26.457031 73.917969 26.550781 73.996094 26.632812 C 74.074219 26.714844 74.191406 26.847656 74.253906 26.921875 C 74.316406 27 74.4375 27.140625 74.527344 27.238281 C 74.675781 27.398438 74.78125 27.675781 74.695312 27.675781 C 74.675781 27.675781 74.023438 27.679688 73.246094 27.679688 L 71.832031 27.683594 L 71.679688 27.578125 C 71.59375 27.523438 71.492188 27.425781 71.453125 27.363281 C 71.414062 27.300781 71.292969 27.152344 71.1875 27.03125 C 71.082031 26.90625 70.976562 26.765625 70.957031 26.714844 C 70.9375 26.664062 70.894531 26.613281 70.867188 26.601562 C 70.835938 26.589844 70.714844 26.460938 70.597656 26.316406 C 70.476562 26.167969 70.292969 25.953125 70.1875 25.835938 C 70.085938 25.71875 69.945312 25.554688 69.878906 25.46875 C 69.8125 25.382812 69.679688 25.222656 69.578125 25.109375 C 69.476562 25 69.1875 24.65625 68.933594 24.34375 C 68.675781 24.03125 68.40625 23.703125 68.324219 23.613281 C 68.246094 23.523438 68.089844 23.339844 67.980469 23.210938 C 67.871094 23.082031 67.730469 22.917969 67.667969 22.851562 C 67.609375 22.78125 67.472656 22.617188 67.367188 22.484375 C 67.125 22.171875 67.089844 22.128906 66.914062 21.949219 C 66.695312 21.71875 66.371094 21.304688 66.34375 21.21875 C 66.328125 21.179688 66.273438 21.121094 66.21875 21.097656 C 66.164062 21.074219 66.121094 21.035156 66.121094 21.011719 C 66.121094 20.992188 66.0625 20.914062 65.988281 20.839844 C 65.917969 20.765625 65.796875 20.625 65.71875 20.527344 C 65.375 20.085938 65.285156 20.015625 65.21875 20.121094 C 65.207031 20.140625 65.199219 21.8125 65.199219 23.828125 L 65.203125 27.5 L 64.992188 27.695312 L 64.007812 27.683594 C 63.421875 27.675781 63.003906 27.65625 62.980469 27.632812 C 62.933594 27.585938 62.921875 12.203125 62.96875 12.03125 L 63 11.921875 L 63.730469 11.910156 C 64.683594 11.894531 65.042969 11.914062 65.125 11.988281 M 56.398438 11.976562 C 57.113281 12.0625 57.390625 12.144531 57.957031 12.433594 C 58.097656 12.507812 58.234375 12.566406 58.257812 12.566406 C 58.285156 12.566406 58.339844 12.601562 58.378906 12.648438 C 58.417969 12.691406 58.46875 12.726562 58.488281 12.726562 C 58.519531 12.726562 58.9375 13.027344 59 13.089844 C 59.011719 13.101562 59.078125 13.160156 59.144531 13.214844 C 59.3125 13.355469 59.839844 13.960938 59.839844 14.011719 C 59.839844 14.035156 59.855469 14.058594 59.871094 14.066406 C 59.921875 14.089844 60.058594 14.3125 60.234375 14.667969 C 60.328125 14.855469 60.421875 15.039062 60.4375 15.070312 C 60.519531 15.21875 60.679688 15.808594 60.679688 15.949219 C 60.679688 16.035156 60.703125 16.128906 60.730469 16.15625 C 60.808594 16.238281 60.820312 17.425781 60.746094 17.789062 C 60.714844 17.949219 60.675781 18.164062 60.660156 18.269531 C 60.648438 18.375 60.609375 18.480469 60.578125 18.507812 C 60.546875 18.535156 60.519531 18.589844 60.519531 18.628906 C 60.519531 18.832031 59.925781 19.898438 59.609375 20.257812 C 59.539062 20.339844 59.480469 20.421875 59.480469 20.441406 C 59.480469 20.464844 59.441406 20.492188 59.398438 20.507812 C 59.351562 20.519531 59.285156 20.585938 59.246094 20.648438 C 59.207031 20.710938 59.078125 20.828125 58.957031 20.910156 C 58.839844 20.992188 58.695312 21.101562 58.640625 21.152344 C 58.585938 21.203125 58.414062 21.3125 58.261719 21.394531 C 58.105469 21.476562 57.933594 21.570312 57.878906 21.601562 C 57.824219 21.628906 57.742188 21.65625 57.691406 21.65625 C 57.339844 21.65625 57.332031 21.835938 57.667969 22.222656 C 57.878906 22.46875 57.917969 22.519531 57.917969 22.550781 C 57.917969 22.570312 57.984375 22.640625 58.0625 22.714844 C 58.136719 22.785156 58.265625 22.941406 58.347656 23.0625 C 58.484375 23.273438 58.5625 23.371094 59.058594 23.960938 C 59.179688 24.105469 59.410156 24.386719 59.566406 24.585938 C 59.726562 24.785156 59.867188 24.957031 59.878906 24.96875 C 59.894531 24.980469 59.972656 25.078125 60.054688 25.1875 C 60.136719 25.296875 60.300781 25.484375 60.421875 25.605469 C 60.542969 25.730469 60.640625 25.84375 60.640625 25.859375 C 60.640625 25.894531 61.089844 26.488281 61.210938 26.605469 C 61.304688 26.699219 61.480469 26.90625 61.675781 27.152344 C 61.78125 27.285156 61.902344 27.511719 61.929688 27.628906 C 61.945312 27.710938 59.238281 27.710938 59.125 27.628906 C 59.054688 27.578125 58.753906 27.199219 58.449219 26.78125 C 58.402344 26.710938 58.285156 26.570312 58.191406 26.46875 C 58.097656 26.367188 57.976562 26.21875 57.917969 26.144531 C 57.863281 26.066406 57.773438 25.949219 57.71875 25.882812 C 57.664062 25.8125 57.59375 25.722656 57.558594 25.679688 C 57.527344 25.632812 57.441406 25.539062 57.371094 25.46875 C 57.296875 25.398438 57.238281 25.320312 57.238281 25.300781 C 57.238281 25.28125 57.207031 25.226562 57.167969 25.179688 C 57.078125 25.070312 57.046875 25.03125 56.589844 24.453125 C 56.375 24.183594 56.183594 23.960938 56.164062 23.960938 C 56.148438 23.960938 56.113281 23.914062 56.085938 23.859375 C 56.042969 23.757812 55.695312 23.285156 55.554688 23.132812 C 55.328125 22.882812 54.996094 22.472656 54.953125 22.382812 C 54.925781 22.328125 54.863281 22.246094 54.820312 22.199219 C 54.777344 22.152344 54.691406 22.050781 54.628906 21.976562 C 54.570312 21.898438 54.460938 21.765625 54.386719 21.675781 C 54.3125 21.585938 54.214844 21.449219 54.164062 21.367188 C 54.117188 21.28125 54.023438 21.171875 53.957031 21.117188 C 53.894531 21.058594 53.839844 20.996094 53.839844 20.972656 C 53.839844 20.949219 53.757812 20.84375 53.660156 20.738281 C 53.433594 20.492188 53.199219 20.203125 53.199219 20.164062 C 53.199219 20.148438 53.15625 20.113281 53.105469 20.089844 C 52.957031 20.023438 52.957031 20.027344 52.960938 23.933594 C 52.964844 26.222656 52.953125 27.574219 52.929688 27.617188 C 52.871094 27.726562 50.859375 27.714844 50.777344 27.605469 C 50.683594 27.480469 50.695312 12.046875 50.789062 11.976562 C 50.898438 11.894531 55.714844 11.894531 56.398438 11.976562 M 78.101562 11.996094 C 78.171875 12.035156 78.257812 12.132812 78.292969 12.210938 C 78.328125 12.289062 78.4375 12.457031 78.539062 12.585938 C 78.636719 12.714844 78.71875 12.847656 78.71875 12.878906 C 78.71875 12.90625 78.765625 12.980469 78.824219 13.039062 C 78.882812 13.097656 78.953125 13.203125 78.984375 13.273438 C 79.011719 13.34375 79.089844 13.460938 79.15625 13.53125 C 79.226562 13.605469 79.28125 13.695312 79.28125 13.734375 C 79.28125 13.773438 79.320312 13.839844 79.367188 13.882812 C 79.414062 13.925781 79.535156 14.085938 79.632812 14.242188 C 79.734375 14.398438 79.882812 14.613281 79.96875 14.722656 C 80.050781 14.828125 80.121094 14.933594 80.121094 14.953125 C 80.121094 14.972656 80.304688 15.261719 80.53125 15.597656 C 80.753906 15.929688 80.96875 16.253906 81 16.3125 C 81.03125 16.375 81.089844 16.453125 81.128906 16.488281 C 81.167969 16.523438 81.226562 16.625 81.265625 16.710938 C 81.300781 16.796875 81.359375 16.890625 81.398438 16.917969 C 81.4375 16.945312 81.53125 17.074219 81.601562 17.199219 C 81.726562 17.425781 81.769531 17.488281 82.152344 18.019531 C 82.253906 18.164062 82.367188 18.332031 82.398438 18.390625 C 82.492188 18.558594 82.753906 18.953125 83.035156 19.34375 C 83.175781 19.539062 83.304688 19.734375 83.324219 19.777344 C 83.34375 19.824219 83.40625 19.921875 83.460938 20 C 83.621094 20.234375 83.789062 20.484375 84.0625 20.902344 C 84.203125 21.121094 84.402344 21.410156 84.5 21.539062 C 84.597656 21.671875 84.679688 21.804688 84.679688 21.835938 C 84.679688 21.867188 84.699219 21.90625 84.71875 21.917969 C 84.765625 21.949219 85.238281 22.652344 85.273438 22.746094 C 85.292969 22.800781 85.472656 23.046875 85.738281 23.378906 C 85.792969 23.449219 85.839844 23.519531 85.839844 23.535156 C 85.839844 23.566406 86.277344 24.242188 86.320312 24.28125 C 86.332031 24.292969 86.390625 24.382812 86.449219 24.484375 C 86.542969 24.648438 86.601562 24.730469 86.871094 25.089844 C 86.914062 25.144531 86.960938 25.238281 86.980469 25.292969 C 86.996094 25.347656 87.035156 25.421875 87.066406 25.453125 C 87.183594 25.578125 87.492188 26.035156 87.542969 26.164062 C 87.574219 26.238281 87.625 26.3125 87.65625 26.332031 C 87.683594 26.347656 87.816406 26.527344 87.945312 26.730469 C 88.078125 26.929688 88.230469 27.15625 88.285156 27.234375 C 88.398438 27.386719 88.445312 27.53125 88.414062 27.617188 C 88.398438 27.65625 88.21875 27.671875 87.605469 27.675781 C 87.175781 27.679688 86.765625 27.683594 86.699219 27.683594 C 85.75 27.695312 85.808594 27.722656 85.414062 27.132812 C 85.121094 26.695312 84.933594 26.425781 84.839844 26.304688 C 84.792969 26.246094 84.566406 25.910156 84.332031 25.554688 C 84.097656 25.199219 83.871094 24.859375 83.824219 24.796875 C 83.777344 24.738281 83.699219 24.636719 83.648438 24.570312 C 83.601562 24.503906 83.558594 24.425781 83.558594 24.394531 C 83.558594 24.363281 83.488281 24.269531 83.402344 24.183594 C 83.3125 24.097656 83.207031 23.953125 83.164062 23.863281 C 83.121094 23.769531 83.039062 23.640625 82.984375 23.574219 L 82.886719 23.453125 L 80.355469 23.441406 L 77.820312 23.429688 L 77.75 23.515625 C 77.683594 23.597656 77.679688 23.753906 77.679688 25.582031 C 77.679688 27.929688 77.742188 27.699219 77.101562 27.691406 C 75.316406 27.675781 75.457031 27.6875 75.40625 27.574219 C 75.347656 27.441406 75.339844 12.109375 75.402344 11.996094 C 75.464844 11.878906 77.910156 11.878906 78.101562 11.996094 M 53.058594 14.285156 C 52.976562 14.347656 52.929688 19.65625 53.007812 19.742188 C 53.050781 19.78125 56.078125 19.761719 56.15625 19.71875 C 56.191406 19.703125 56.3125 19.675781 56.425781 19.664062 C 56.539062 19.652344 56.722656 19.59375 56.835938 19.539062 C 56.945312 19.480469 57.058594 19.433594 57.082031 19.433594 C 57.226562 19.433594 58.160156 18.476562 58.160156 18.328125 C 58.160156 18.289062 58.203125 18.175781 58.257812 18.070312 C 58.582031 17.445312 58.515625 16.359375 58.105469 15.601562 C 57.757812 14.964844 56.898438 14.382812 56.160156 14.285156 C 55.679688 14.222656 53.140625 14.222656 53.058594 14.285156 M 77.707031 15.664062 C 77.632812 15.738281 77.679688 20.996094 77.753906 21.066406 C 77.820312 21.125 77.988281 21.132812 79.363281 21.132812 C 81.445312 21.128906 81.40625 21.140625 81.0625 20.6875 C 80.984375 20.585938 80.894531 20.449219 80.859375 20.382812 C 80.792969 20.25 80.691406 20.085938 80.34375 19.566406 C 80.214844 19.371094 80.007812 19.058594 79.886719 18.867188 C 79.761719 18.679688 79.652344 18.515625 79.636719 18.503906 C 79.621094 18.492188 79.550781 18.375 79.476562 18.242188 C 79.40625 18.109375 79.335938 17.992188 79.320312 17.980469 C 79.292969 17.960938 79.089844 17.660156 79.03125 17.550781 C 79.011719 17.519531 78.988281 17.472656 78.96875 17.441406 C 78.953125 17.414062 78.832031 17.226562 78.703125 17.027344 C 78.570312 16.828125 78.433594 16.621094 78.402344 16.5625 C 78.367188 16.503906 78.253906 16.328125 78.148438 16.175781 C 78.042969 16.023438 77.914062 15.839844 77.867188 15.769531 C 77.777344 15.632812 77.75 15.617188 77.707031 15.664062 M 16.476562 19.9375 C 16.519531 20.015625 16.585938 20.082031 16.617188 20.082031 C 16.648438 20.082031 16.703125 20.121094 16.738281 20.171875 C 16.773438 20.222656 16.878906 20.34375 16.976562 20.445312 C 17.070312 20.542969 17.167969 20.667969 17.195312 20.71875 C 17.222656 20.765625 17.265625 20.808594 17.292969 20.808594 C 17.351562 20.808594 18.320312 21.792969 18.320312 21.851562 C 18.320312 21.875 18.359375 21.917969 18.410156 21.945312 C 18.542969 22.015625 18.996094 22.460938 19.371094 22.886719 C 19.429688 22.953125 19.5 23.03125 19.527344 23.058594 C 19.699219 23.230469 20.613281 24.15625 20.675781 24.222656 C 20.714844 24.265625 20.898438 24.453125 21.082031 24.632812 C 21.269531 24.816406 21.78125 25.335938 22.226562 25.785156 C 22.667969 26.238281 23.183594 26.753906 23.367188 26.9375 C 23.550781 27.121094 24.0625 27.636719 24.507812 28.089844 C 24.953125 28.539062 25.542969 29.136719 25.816406 29.414062 C 26.34375 29.941406 26.453125 30.136719 26.25 30.210938 C 26.210938 30.222656 26.152344 30.261719 26.113281 30.289062 C 26.078125 30.320312 25.917969 30.417969 25.753906 30.507812 C 25.492188 30.652344 25.273438 30.761719 24.578125 31.09375 C 24.464844 31.148438 24.3125 31.203125 24.238281 31.21875 C 24.160156 31.230469 24.074219 31.261719 24.046875 31.289062 C 23.980469 31.339844 23.773438 31.417969 23.519531 31.496094 C 23.421875 31.523438 23.207031 31.605469 23.039062 31.671875 C 22.875 31.742188 22.683594 31.796875 22.613281 31.796875 C 22.542969 31.796875 22.433594 31.816406 22.371094 31.84375 C 21.214844 32.300781 16.65625 32.191406 16.335938 31.699219 C 16.265625 31.585938 16.25 20.089844 16.320312 19.898438 C 16.367188 19.769531 16.375 19.769531 16.476562 19.9375 "/>
</g>
</svg>
